<mxfile host="app.diagrams.net" modified="2020-09-29T02:09:44.994Z" agent="5.0 (Windows NT 10.0; Win64; x64) AppleWebKit/537.36 (KHTML, like Gecko) Chrome/78.0.3904.108 Safari/537.36" etag="qGh7HR25yO0gDLYw69Mr" version="13.7.6" type="github">
  <diagram id="e1_LAQYE1LrGSwH84uzL" name="Page-1">
    <mxGraphModel dx="301" dy="247" grid="1" gridSize="10" guides="1" tooltips="1" connect="1" arrows="1" fold="1" page="1" pageScale="1" pageWidth="827" pageHeight="1169" math="0" shadow="0">
      <root>
        <mxCell id="0" />
        <mxCell id="1" parent="0" />
        <mxCell id="yeuwLw-cPeasZQHYDPit-3" value="" style="edgeStyle=orthogonalEdgeStyle;rounded=0;orthogonalLoop=1;jettySize=auto;html=1;" edge="1" parent="1" source="yeuwLw-cPeasZQHYDPit-1" target="yeuwLw-cPeasZQHYDPit-2">
          <mxGeometry relative="1" as="geometry" />
        </mxCell>
        <mxCell id="yeuwLw-cPeasZQHYDPit-5" style="edgeStyle=orthogonalEdgeStyle;rounded=0;orthogonalLoop=1;jettySize=auto;html=1;exitX=0.5;exitY=1;exitDx=0;exitDy=0;entryX=0.5;entryY=1;entryDx=0;entryDy=0;fillColor=#fff2cc;strokeColor=#d6b656;" edge="1" parent="1" source="yeuwLw-cPeasZQHYDPit-1" target="yeuwLw-cPeasZQHYDPit-2">
          <mxGeometry relative="1" as="geometry">
            <Array as="points">
              <mxPoint x="510" y="250" />
              <mxPoint x="710" y="250" />
            </Array>
          </mxGeometry>
        </mxCell>
        <mxCell id="yeuwLw-cPeasZQHYDPit-1" value="" style="whiteSpace=wrap;html=1;" vertex="1" parent="1">
          <mxGeometry x="450" y="140" width="120" height="60" as="geometry" />
        </mxCell>
        <mxCell id="yeuwLw-cPeasZQHYDPit-4" style="edgeStyle=orthogonalEdgeStyle;rounded=0;orthogonalLoop=1;jettySize=auto;html=1;exitX=0.25;exitY=1;exitDx=0;exitDy=0;entryX=0.75;entryY=1;entryDx=0;entryDy=0;elbow=vertical;curved=1;fillColor=#e1d5e7;strokeColor=#9673a6;endArrow=diamondThin;endFill=1;" edge="1" parent="1" source="yeuwLw-cPeasZQHYDPit-2" target="yeuwLw-cPeasZQHYDPit-1">
          <mxGeometry relative="1" as="geometry" />
        </mxCell>
        <mxCell id="yeuwLw-cPeasZQHYDPit-2" value="" style="whiteSpace=wrap;html=1;fillColor=#dae8fc;strokeColor=#6c8ebf;" vertex="1" parent="1">
          <mxGeometry x="650" y="140" width="120" height="60" as="geometry" />
        </mxCell>
      </root>
    </mxGraphModel>
  </diagram>
</mxfile>
